<?xml version="1.0" standalone="no"?>
<!DOCTYPE svg PUBLIC "-//W3C//DTD SVG 20010904//EN"
 "http://www.w3.org/TR/2001/REC-SVG-20010904/DTD/svg10.dtd">
<svg version="1.0" xmlns="http://www.w3.org/2000/svg"
 width="700.000000pt" height="700.000000pt" viewBox="0 0 700.000000 700.000000"
 preserveAspectRatio="xMidYMid meet">
<metadata>
Created by potrace 1.11, written by Peter Selinger 2001-2013
</metadata>
<g transform="translate(0.000000,700.000000) scale(0.100000,-0.100000)"
fill="#000000" stroke="none">
<path d="M6055 6409 c-22 -4 -58 -10 -80 -13 -66 -11 -158 -26 -190 -31 -42
-8 -133 -23 -175 -29 -19 -3 -46 -8 -60 -10 -42 -8 -382 -65 -420 -70 -19 -3
-46 -8 -60 -11 -14 -3 -45 -8 -70 -11 -25 -3 -47 -8 -50 -9 -3 -2 -33 -7 -65
-10 -33 -4 -63 -9 -66 -11 -3 -1 -28 -6 -55 -9 -27 -4 -56 -8 -64 -10 -8 -3
-33 -7 -55 -10 -38 -6 -52 -8 -115 -20 -14 -2 -83 -13 -155 -25 -129 -21 -156
-25 -205 -35 -14 -2 -68 -11 -120 -20 -52 -8 -104 -17 -115 -19 -11 -2 -40 -7
-65 -11 -25 -4 -54 -9 -65 -11 -11 -2 -90 -15 -175 -29 -85 -14 -164 -27 -175
-29 -11 -2 -42 -7 -70 -10 -27 -4 -57 -9 -65 -11 -8 -2 -31 -6 -50 -9 -19 -3
-46 -8 -60 -11 -14 -2 -68 -11 -120 -20 -52 -8 -106 -17 -120 -20 -14 -2 -83
-13 -155 -25 -245 -39 -279 -46 -322 -69 -57 -30 -103 -78 -132 -140 l-26 -56
-2 -1410 c-1 -775 -2 -1415 -2 -1420 -1 -6 -35 6 -76 26 -432 210 -972 123
-1314 -213 -235 -229 -354 -514 -354 -843 0 -431 223 -803 610 -1021 53 -30
198 -89 243 -99 130 -29 182 -37 271 -39 393 -11 741 159 984 482 90 120 176
318 200 462 4 25 10 54 13 65 3 11 6 848 7 1860 l1 1840 40 7 c21 4 57 9 79
13 22 3 117 19 210 35 94 16 184 31 200 33 36 6 193 32 315 53 19 3 48 8 64
10 15 2 35 6 45 8 9 3 39 8 66 12 28 3 59 8 70 10 20 4 186 32 240 40 17 3 71
12 120 21 50 8 104 17 120 20 17 2 82 13 145 23 63 11 132 22 154 26 21 3 48
8 60 10 11 2 52 9 90 14 37 6 71 12 75 14 3 2 33 7 66 11 32 3 62 8 65 10 4 2
29 7 56 10 27 4 60 8 74 11 21 4 192 33 295 50 17 2 55 9 85 14 93 17 104 19
144 22 l39 3 0 -1210 c0 -723 -3 -1210 -9 -1210 -5 0 -36 13 -69 29 -77 37
-207 81 -265 91 -25 4 -54 10 -65 12 -11 3 -76 6 -145 8 -254 7 -475 -56 -687
-197 -92 -62 -231 -199 -288 -283 -22 -33 -43 -62 -47 -65 -4 -3 -30 -53 -58
-112 -81 -170 -118 -343 -114 -530 14 -639 528 -1140 1170 -1140 250 1 518 92
710 244 55 43 197 193 236 248 63 89 144 253 164 330 26 101 35 144 41 195 4
33 7 949 7 2035 l0 1975 -23 48 c-59 126 -193 193 -336 166z m-649 -3514 c198
-58 356 -220 409 -420 22 -87 18 -232 -10 -317 -125 -382 -587 -531 -902 -291
-91 69 -132 119 -180 223 -46 97 -56 157 -50 279 4 86 10 119 34 176 60 146
159 251 296 316 121 56 280 70 403 34z m-3512 -580 c200 -52 369 -221 420
-421 20 -79 20 -209 0 -287 -41 -159 -145 -291 -296 -375 -30 -17 -123 -49
-123 -42 0 1 -13 -3 -28 -9 -44 -17 -185 -15 -257 4 -260 67 -443 304 -441
570 1 271 190 504 456 564 65 15 206 12 269 -4z"/>
</g>
</svg>
