<?xml version="1.0" standalone="no"?>
<!DOCTYPE svg PUBLIC "-//W3C//DTD SVG 20010904//EN"
 "http://www.w3.org/TR/2001/REC-SVG-20010904/DTD/svg10.dtd">
<svg version="1.0" xmlns="http://www.w3.org/2000/svg"
 width="408.000000pt" height="408.000000pt" viewBox="0 0 408.000000 408.000000"
 preserveAspectRatio="xMidYMid meet">
<metadata>
Created by potrace 1.11, written by Peter Selinger 2001-2013
</metadata>
<g transform="translate(0.000000,408.000000) scale(0.100000,-0.100000)"
fill="#000000" stroke="none">
<path d="M852 3488 l3 -253 168 -3 167 -2 0 255 0 255 -170 0 -170 0 2 -252z"/>
<path d="M1532 3488 l3 -253 168 -3 167 -2 0 255 0 255 -170 0 -170 0 2 -252z"/>
<path d="M2210 3485 l0 -255 170 0 170 0 0 255 0 255 -170 0 -170 0 0 -255z"/>
<path d="M627 2875 c-22 -7 -50 -24 -64 -37 -55 -50 -53 -18 -53 -965 0 -490
5 -907 10 -943 27 -187 182 -354 377 -404 89 -23 1511 -24 1600 -1 97 25 163
64 239 139 83 83 126 164 146 276 l14 75 210 5 c201 5 211 6 264 32 65 32 85
48 133 111 67 88 68 100 65 640 l-3 482 -29 62 c-33 72 -97 137 -171 173 -48
24 -61 25 -262 28 l-213 3 0 98 c0 64 -5 111 -15 134 -18 43 -64 83 -113 97
-24 6 -388 10 -1067 10 -846 -1 -1037 -3 -1068 -15z m2603 -1090 l0 -425 -167
2 -168 3 -3 423 -2 422 170 0 170 0 0 -425z"/>
</g>
</svg>
